<svg xmlns="http://www.w3.org/2000/svg" xmlns:xlink="http://www.w3.org/1999/xlink" aria-hidden="true" focusable="false" width="32px" height="32px" style="-ms-transform: rotate(360deg); -webkit-transform: rotate(360deg); transform: rotate(360deg);" preserveAspectRatio="xMidYMid meet" viewBox="0 0 2000 2000"><path d="M429.65 210C214.934 210 40 384.196 40 598.5v803c0 214.304 174.934 388.5 389.65 388.5h1140.7c214.716 0 389.65-174.196 389.65-388.5v-803c0-214.304-174.934-388.5-389.65-388.5H429.65zm0 120h1140.7C1720.887 330 1840 448.826 1840 598.5v803c0 149.674-119.113 268.5-269.65 268.5H429.65C279.113 1670 160 1551.174 160 1401.5v-803C160 448.826 279.113 330 429.65 330z" fill="#2D2D2D"/><rect x="0" y="0" width="2000" height="2000" fill="rgba(0, 0, 0, 0)" /></svg>